<?xml version="1.0" encoding="utf-8"?>
<!-- Generator: Adobe Illustrator 17.0.0, SVG Export Plug-In . SVG Version: 6.00 Build 0)  -->
<!DOCTYPE svg PUBLIC "-//W3C//DTD SVG 1.1//EN" "http://www.w3.org/Graphics/SVG/1.1/DTD/svg11.dtd">
<svg version="1.1" id="Livello_1" xmlns="http://www.w3.org/2000/svg" xmlns:xlink="http://www.w3.org/1999/xlink" x="0px" y="0px"
	 width="30px" height="30px" viewBox="0 0 30 30" enable-background="new 0 0 30 30" xml:space="preserve">
<g>
	<path fill="#FFFFFF" d="M12.073,19.359L16.386,15l-4.313-4.359c-0.375-0.344-0.383-0.687-0.023-1.031
		c0.359-0.344,0.71-0.344,1.055,0l4.875,4.875c0.156,0.125,0.234,0.297,0.234,0.516c0,0.219-0.078,0.391-0.234,0.516l-4.875,4.875
		c-0.344,0.344-0.696,0.344-1.055,0C11.69,20.047,11.698,19.703,12.073,19.359z"/>
</g>
<g display="none">
	<path display="inline" fill="#FFFFFF" d="M11.786,15c0-0.218,0.078-0.391,0.234-0.516l4.875-4.875c0.344-0.344,0.695-0.344,1.055,0
		c0.359,0.344,0.352,0.688-0.023,1.031L13.614,15l4.312,4.359c0.156,0.125,0.234,0.289,0.234,0.492s-0.078,0.383-0.234,0.539
		c-0.344,0.344-0.688,0.344-1.031,0l-4.875-4.875C11.864,15.391,11.786,15.219,11.786,15z"/>
</g>
</svg>
